<svg width="220" height="105" viewBox="0 0 220 105" fill="none" xmlns="http://www.w3.org/2000/svg">
    <!-- Линии сетки -->
    <line x1="5" y1="20" x2="215" y2="20" stroke="currentColor" stroke-width="1" />
    <line x1="5" y1="52.5" x2="215" y2="52.5" stroke="currentColor" stroke-width="1"/>
    <line x1="5" y1="85" x2="215" y2="85" stroke="currentColor" stroke-width="1" />

    <!-- Основной график -->
    <path d="M6 86C17 86 18 100 30 100C42 100 39 59 50 59C61 59 55 25 70 25C85 25 78 59 92 59C106 59 104 19 113 19C122 19 120 43 130 43C141 43 136 4 147 4C158 4 157 21 167 21C177 21 178 41 192 41C206 41 197 63 211 63" stroke="#6C5FBC" stroke-width="2" stroke-linecap="round" stroke-linejoin="round"/>

    <!-- Элемент с ценой -->
    <path d="M178 25C180 25 181 27 181 29C181 31 180 32 178 32C176 32 175 31 175 29C175 27 176 25 178 25Z" fill="#C5BFED" stroke="#6C5FBC" stroke-width="2"/>
    <rect x="177" y="7" width="26" height="12" rx="6" fill="#6C5FBC"/>
    <text x="190" y="15" font-family="Poppins, sans-serif" font-size="7" font-weight="bold" fill="white" text-anchor="middle">$409</text>
</svg>
                                    