<svg width="17" height="16" viewBox="0 0 17 16" fill="none" xmlns="http://www.w3.org/2000/svg">
<path d="M8.26367 0.896484C8.43525 0.368415 9.18291 0.368416 9.35449 0.896484L10.502 4.42871C10.7126 5.07688 11.3165 5.51562 11.998 5.51562H15.7129C16.2677 5.51599 16.4986 6.22638 16.0498 6.55273L13.0439 8.73633C12.4929 9.13698 12.2621 9.8471 12.4727 10.4951L13.6211 14.0273C13.7926 14.5554 13.1875 14.9943 12.7383 14.668L9.7334 12.4854C9.18202 12.0848 8.43517 12.0848 7.88379 12.4854L4.87891 14.668C4.42971 14.9943 3.82549 14.5554 3.99707 14.0273L5.14453 10.4951C5.35513 9.84695 5.12459 9.13693 4.57324 8.73633L1.56836 6.55273C1.11917 6.22638 1.35005 5.51565 1.90527 5.51562H5.62012C6.30151 5.51547 6.90564 5.07678 7.11621 4.42871L8.26367 0.896484Z" fill="#F9F9F9" stroke="#F59E0B"/>
</svg>
